<?xml version="1.0" encoding="UTF-8" standalone="no"?>
<!DOCTYPE svg PUBLIC "-//W3C//DTD SVG 1.1//EN"
 "http://www.w3.org/Graphics/SVG/1.1/DTD/svg11.dtd">
<!-- Generated by graphviz version 2.40.1 (20161225.0304)
 -->
<!-- Title: db Pages: 1 -->
<svg width="780pt" height="489pt"
 viewBox="0.00 0.00 779.50 489.00" xmlns="http://www.w3.org/2000/svg" xmlns:xlink="http://www.w3.org/1999/xlink">
<g id="graph0" class="graph" transform="scale(1 1) rotate(0) translate(4 485)">
<title>db</title>
<polygon fill="#ffffff" stroke="transparent" points="-4,4 -4,-485 775.5,-485 775.5,4 -4,4"/>
<!-- public.goose_db_version -->
<g id="node1" class="node">
<title>public.goose_db_version</title>
<polygon fill="#efefef" stroke="transparent" points="43,-282.5 43,-317.5 383,-317.5 383,-282.5 43,-282.5"/>
<polygon fill="none" stroke="#000000" points="43,-282.5 43,-317.5 383,-317.5 383,-282.5 43,-282.5"/>
<text text-anchor="start" x="49.6841" y="-295.3" font-family="Arial Bold" font-size="18.00" fill="#000000">public.goose_db_version</text>
<text text-anchor="start" x="248.7479" y="-295.3" font-family="Arial" font-size="14.00" fill="#000000">    </text>
<text text-anchor="start" x="282.9527" y="-295.3" font-family="Arial" font-size="14.00" fill="#666666">[BASE TABLE]</text>
<polygon fill="none" stroke="#000000" points="43,-252.5 43,-282.5 383,-282.5 383,-252.5 43,-252.5"/>
<text text-anchor="start" x="50" y="-263.9" font-family="Arial" font-size="14.00" fill="#000000">id    </text>
<text text-anchor="start" x="95.094" y="-263.9" font-family="Arial" font-size="14.00" fill="#666666">[integer]</text>
<polygon fill="none" stroke="#000000" points="43,-222.5 43,-252.5 383,-252.5 383,-222.5 43,-222.5"/>
<text text-anchor="start" x="50" y="-233.9" font-family="Arial" font-size="14.00" fill="#000000">version_id    </text>
<text text-anchor="start" x="147.9916" y="-233.9" font-family="Arial" font-size="14.00" fill="#666666">[bigint]</text>
<polygon fill="none" stroke="#000000" points="43,-192.5 43,-222.5 383,-222.5 383,-192.5 43,-192.5"/>
<text text-anchor="start" x="50" y="-203.9" font-family="Arial" font-size="14.00" fill="#000000">is_applied    </text>
<text text-anchor="start" x="147.2202" y="-203.9" font-family="Arial" font-size="14.00" fill="#666666">[boolean]</text>
<polygon fill="none" stroke="#000000" points="43,-162.5 43,-192.5 383,-192.5 383,-162.5 43,-162.5"/>
<text text-anchor="start" x="50" y="-173.9" font-family="Arial" font-size="14.00" fill="#000000">tstamp    </text>
<text text-anchor="start" x="126.2118" y="-173.9" font-family="Arial" font-size="14.00" fill="#666666">[timestamp without time zone]</text>
</g>
<!-- public.codes -->
<g id="node2" class="node">
<title>public.codes</title>
<polygon fill="#efefef" stroke="transparent" points="488,-402.5 488,-437.5 729,-437.5 729,-402.5 488,-402.5"/>
<polygon fill="none" stroke="#000000" points="488,-402.5 488,-437.5 729,-437.5 729,-402.5 488,-402.5"/>
<text text-anchor="start" x="494.7021" y="-415.3" font-family="Arial Bold" font-size="18.00" fill="#000000">public.codes</text>
<text text-anchor="start" x="594.7299" y="-415.3" font-family="Arial" font-size="14.00" fill="#000000">    </text>
<text text-anchor="start" x="628.9347" y="-415.3" font-family="Arial" font-size="14.00" fill="#666666">[BASE TABLE]</text>
<polygon fill="none" stroke="#000000" points="488,-372.5 488,-402.5 729,-402.5 729,-372.5 488,-372.5"/>
<text text-anchor="start" x="495" y="-383.9" font-family="Arial" font-size="14.00" fill="#000000">id    </text>
<text text-anchor="start" x="540.094" y="-383.9" font-family="Arial" font-size="14.00" fill="#666666">[bigint]</text>
<polygon fill="none" stroke="#000000" points="488,-342.5 488,-372.5 729,-372.5 729,-342.5 488,-342.5"/>
<text text-anchor="start" x="495" y="-353.9" font-family="Arial" font-size="14.00" fill="#000000">code    </text>
<text text-anchor="start" x="559.5526" y="-353.9" font-family="Arial" font-size="14.00" fill="#666666">[character(16)]</text>
<polygon fill="none" stroke="#000000" points="488,-312.5 488,-342.5 729,-342.5 729,-312.5 488,-312.5"/>
<text text-anchor="start" x="495" y="-323.9" font-family="Arial" font-size="14.00" fill="#000000">version    </text>
<text text-anchor="start" x="574.3198" y="-323.9" font-family="Arial" font-size="14.00" fill="#666666">[character(1)]</text>
<polygon fill="none" stroke="#000000" points="488,-282.5 488,-312.5 729,-312.5 729,-282.5 488,-282.5"/>
<text text-anchor="start" x="495" y="-293.9" font-family="Arial" font-size="14.00" fill="#000000">school    </text>
<text text-anchor="start" x="569.6592" y="-293.9" font-family="Arial" font-size="14.00" fill="#666666">[character(1)]</text>
<polygon fill="none" stroke="#000000" points="488,-252.5 488,-282.5 729,-282.5 729,-252.5 488,-252.5"/>
<text text-anchor="start" x="495" y="-263.9" font-family="Arial" font-size="14.00" fill="#000000">subject    </text>
<text text-anchor="start" x="573.5498" y="-263.9" font-family="Arial" font-size="14.00" fill="#666666">[character(1)]</text>
<polygon fill="none" stroke="#000000" points="488,-222.5 488,-252.5 729,-252.5 729,-222.5 488,-222.5"/>
<text text-anchor="start" x="495" y="-233.9" font-family="Arial" font-size="14.00" fill="#000000">course    </text>
<text text-anchor="start" x="571.2132" y="-233.9" font-family="Arial" font-size="14.00" fill="#666666">[character(1)]</text>
<polygon fill="none" stroke="#000000" points="488,-192.5 488,-222.5 729,-222.5 729,-192.5 488,-192.5"/>
<text text-anchor="start" x="495" y="-203.9" font-family="Arial" font-size="14.00" fill="#000000">goal_group    </text>
<text text-anchor="start" x="599.2328" y="-203.9" font-family="Arial" font-size="14.00" fill="#666666">[character(1)]</text>
<polygon fill="none" stroke="#000000" points="488,-162.5 488,-192.5 729,-192.5 729,-162.5 488,-162.5"/>
<text text-anchor="start" x="495" y="-173.9" font-family="Arial" font-size="14.00" fill="#000000">grade    </text>
<text text-anchor="start" x="564.9958" y="-173.9" font-family="Arial" font-size="14.00" fill="#666666">[character(1)]</text>
<polygon fill="none" stroke="#000000" points="488,-132.5 488,-162.5 729,-162.5 729,-132.5 488,-132.5"/>
<text text-anchor="start" x="495" y="-143.9" font-family="Arial" font-size="14.00" fill="#000000">goal    </text>
<text text-anchor="start" x="555.6592" y="-143.9" font-family="Arial" font-size="14.00" fill="#666666">[character(1)]</text>
<polygon fill="none" stroke="#000000" points="488,-102.5 488,-132.5 729,-132.5 729,-102.5 488,-102.5"/>
<text text-anchor="start" x="495" y="-113.9" font-family="Arial" font-size="14.00" fill="#000000">detail    </text>
<text text-anchor="start" x="562.6564" y="-113.9" font-family="Arial" font-size="14.00" fill="#666666">[character(8)]</text>
<polygon fill="none" stroke="#000000" points="488,-72.5 488,-102.5 729,-102.5 729,-72.5 488,-72.5"/>
<text text-anchor="start" x="495" y="-83.9" font-family="Arial" font-size="14.00" fill="#000000">status    </text>
<text text-anchor="start" x="566.5512" y="-83.9" font-family="Arial" font-size="14.00" fill="#666666">[character(1)]</text>
<polygon fill="none" stroke="#000000" points="488,-42.5 488,-72.5 729,-72.5 729,-42.5 488,-42.5"/>
<text text-anchor="start" x="495" y="-53.9" font-family="Arial" font-size="14.00" fill="#000000">text    </text>
<text text-anchor="start" x="551.7686" y="-53.9" font-family="Arial" font-size="14.00" fill="#666666">[text]</text>
</g>
</g>
</svg>
